<svg width="1237" height="976" viewBox="0 0 1237 976" fill="none" xmlns="http://www.w3.org/2000/svg">
<path d="M1228.33 953.754C1225.86 954.272 1223.28 953.864 1221.09 952.607C1218.89 951.349 1217.24 949.331 1216.43 946.934C1179 837.634 1071.07 825.794 1045.7 827.324C996.923 830.254 944.293 851.534 891.653 866.864C865.273 874.554 616.883 990.084 460.973 973.674C137.813 936.444 -33.8872 707.414 5.58276 435.944C41.5828 188.464 294.053 -23.7363 543.583 2.14367C1062.02 55.9137 985.873 530.974 973.733 609.454C973.424 611.77 972.385 613.929 970.767 615.615C969.148 617.302 967.035 618.429 964.733 618.834C963.296 619.075 961.823 618.987 960.426 618.577C959.028 618.166 957.742 617.443 956.664 616.463C955.587 615.482 954.746 614.27 954.205 612.917C953.664 611.565 953.438 610.107 953.543 608.654C958.693 543.494 956.703 153.714 524.893 120.544C335.803 106.024 175.893 260.674 147.153 447.544C115.333 654.624 266.703 824.034 473.423 845.784C562.833 855.194 823.973 765.484 858.883 755.314C913.343 739.454 1020.88 725.134 1062.93 734.524C1104.98 743.914 1205.93 746.354 1236.24 941.964C1236.69 944.586 1236.1 947.278 1234.61 949.482C1233.12 951.685 1230.84 953.229 1228.24 953.794L1228.33 953.754Z" fill="white"/>
</svg>
