<svg width="3821" height="976" viewBox="0 0 3821 976" fill="none" xmlns="http://www.w3.org/2000/svg">
<path d="M3805.57 816.64C3810.09 819.313 3813.8 823.172 3816.29 827.8C3818.79 832.624 3820.1 837.98 3820.1 843.415C3820.1 848.85 3818.79 854.206 3816.29 859.03C3813.8 863.658 3810.09 867.517 3805.57 870.19C3800.85 872.894 3795.51 874.317 3790.07 874.317C3784.63 874.317 3779.29 872.894 3774.57 870.19C3770.05 867.52 3766.34 863.66 3763.86 859.03C3761.35 854.208 3760.04 848.851 3760.04 843.415C3760.04 837.978 3761.35 832.622 3763.86 827.8C3766.34 823.17 3770.05 819.31 3774.57 816.64C3779.29 813.935 3784.63 812.513 3790.07 812.513C3795.51 812.513 3800.85 813.935 3805.57 816.64V816.64ZM3803.95 867.64C3807.98 865.249 3811.27 861.787 3813.45 857.64C3815.69 853.258 3816.86 848.407 3816.86 843.485C3816.86 838.563 3815.69 833.711 3813.45 829.33C3811.27 825.182 3807.98 821.721 3803.95 819.33C3799.71 816.943 3794.93 815.689 3790.07 815.689C3785.21 815.689 3780.43 816.943 3776.19 819.33C3772.16 821.718 3768.87 825.18 3766.69 829.33C3764.45 833.711 3763.28 838.563 3763.28 843.485C3763.28 848.407 3764.45 853.258 3766.69 857.64C3768.87 861.789 3772.16 865.251 3776.19 867.64C3780.43 870.026 3785.21 871.28 3790.07 871.28C3794.93 871.28 3799.71 870.026 3803.95 867.64V867.64ZM3792.5 845.4L3803.71 860.61L3800.13 860.77L3788.93 845.4H3782.44V860.77H3779.19V826.1H3792.67C3796 826.1 3798.63 826.936 3800.54 828.61C3801.5 829.498 3802.25 830.585 3802.74 831.794C3803.23 833.004 3803.45 834.306 3803.38 835.61C3803.45 836.931 3803.23 838.252 3802.74 839.481C3802.25 840.71 3801.5 841.818 3800.54 842.73C3798.64 844.463 3796.02 845.326 3792.67 845.32L3792.5 845.4ZM3782.44 842.32H3792.34C3794.36 842.431 3796.36 841.864 3798.02 840.71C3798.75 840.105 3799.32 839.336 3799.68 838.466C3800.05 837.596 3800.2 836.651 3800.13 835.71C3800.13 831.396 3797.53 829.24 3792.34 829.24H3782.44V842.32Z" fill="white"/>
<path d="M1291.2 581.89C1306.6 552.83 1328.3 530.497 1356.3 514.89C1384.3 499.283 1416.27 491.493 1452.2 491.52C1495.6 491.52 1532.35 502.8 1562.45 525.36C1592.55 547.92 1612.73 576.637 1623 611.51V496.44H1636.3V873.15H1623V758C1612.73 792.88 1592.55 821.6 1562.45 844.16C1532.35 866.72 1495.6 878 1452.2 878C1416.26 878 1384.29 870.21 1356.3 854.63C1328.31 839.05 1306.61 816.717 1291.2 787.63C1275.8 758.57 1268.1 724.27 1268.1 684.73C1268.1 645.19 1275.8 610.91 1291.2 581.89ZM1600.95 590.27C1586.28 563.057 1565.98 541.893 1540.05 526.78C1514.12 511.667 1484.83 504.11 1452.2 504.11C1417.66 504.11 1387.66 511.32 1362.2 525.74C1336.74 540.16 1317.02 560.97 1303.05 588.17C1289.05 615.383 1282.05 647.59 1282.05 684.79C1282.05 721.99 1289.05 754.197 1303.05 781.41C1317.05 808.617 1336.77 829.43 1362.2 843.85C1387.63 858.27 1417.63 865.477 1452.2 865.47C1484.87 865.47 1514.15 857.913 1540.05 842.8C1565.95 827.687 1586.25 806.527 1600.95 779.32C1615.62 752.107 1622.95 720.597 1622.95 684.79C1622.95 648.983 1615.63 617.477 1601 590.27H1600.95Z" fill="white"/>
<path d="M2110.9 529.22C2139.36 556.667 2153.59 598.06 2153.6 653.4V873.15H2140.3V652C2140.3 602.714 2127.93 565.16 2103.2 539.34C2078.47 513.52 2044.63 500.614 2001.7 500.62C1956.9 500.62 1920.97 515.154 1893.9 544.22C1866.83 573.287 1853.3 616.19 1853.3 672.93V873.15H1839.3V496.44H1853.3V595.5C1862.16 560.62 1879.89 533.994 1906.5 515.62C1933.11 497.247 1964.84 488.064 2001.7 488.07C2046.03 488.07 2082.43 501.787 2110.9 529.22Z" fill="white"/>
<path d="M2347.16 394.93C2343.66 391.45 2341.91 386.917 2341.91 381.33C2341.91 375.743 2343.66 371.21 2347.16 367.73C2350.64 364.376 2355.28 362.501 2360.11 362.501C2364.94 362.501 2369.58 364.376 2373.06 367.73C2376.56 371.223 2378.31 375.757 2378.31 381.33C2378.31 386.903 2376.56 391.437 2373.06 394.93C2369.59 398.292 2364.94 400.171 2360.11 400.171C2355.28 400.171 2350.63 398.292 2347.16 394.93V394.93ZM2367.16 496.44V873.15H2353.16V496.44H2367.16Z" fill="white"/>
<path d="M2645 525C2674.4 502.68 2710.8 491.517 2754.2 491.51C2790.13 491.51 2822.1 499.3 2850.11 514.88C2878.12 530.46 2899.82 552.794 2915.21 581.88C2930.61 610.947 2938.31 645.247 2938.31 684.78C2938.31 724.314 2930.61 758.614 2915.21 787.68C2899.81 816.754 2878.11 839.087 2850.11 854.68C2822.11 870.274 2790.14 878.047 2754.2 878C2710.8 878 2674.17 866.837 2644.3 844.51C2614.43 822.184 2594.13 793.35 2583.4 758.01V873.12H2570.1V356.91H2583.4V611.54C2595.06 576.2 2615.59 547.354 2645 525ZM2903.31 588.13C2889.31 560.93 2869.59 540.12 2844.16 525.7C2818.73 511.28 2788.73 504.07 2754.16 504.07C2721.49 504.07 2692.21 511.627 2666.31 526.74C2640.41 541.854 2620.11 563.017 2605.41 590.23C2590.74 617.43 2583.41 648.937 2583.41 684.75C2583.41 720.564 2590.74 752.074 2605.41 779.28C2620.11 806.494 2640.41 827.654 2666.31 842.76C2692.21 857.867 2721.49 865.424 2754.16 865.43C2788.69 865.43 2818.69 858.224 2844.16 843.81C2869.63 829.397 2889.34 808.584 2903.31 781.37C2917.31 754.157 2924.31 721.95 2924.31 684.75C2924.31 647.55 2917.31 615.357 2903.31 588.17V588.13Z" fill="white"/>
<path d="M3129.4 581.89C3144.8 552.83 3166.5 530.497 3194.5 514.89C3222.5 499.283 3254.47 491.493 3290.41 491.52C3333.81 491.52 3370.56 502.8 3400.66 525.36C3430.76 547.92 3450.94 576.637 3461.21 611.51V496.44H3474.51V873.15H3461.21V758C3450.94 792.88 3430.76 821.6 3400.66 844.16C3370.56 866.72 3333.81 878 3290.41 878C3254.47 878 3222.5 870.21 3194.5 854.63C3166.5 839.05 3144.8 816.717 3129.4 787.63C3114 758.57 3106.3 724.27 3106.3 684.73C3106.3 645.19 3114 610.91 3129.4 581.89ZM3439.16 590.27C3424.49 563.057 3404.19 541.893 3378.26 526.78C3352.33 511.667 3323.04 504.11 3290.41 504.11C3255.87 504.11 3225.89 511.32 3200.46 525.74C3175.03 540.16 3155.31 560.97 3141.3 588.17C3127.3 615.383 3120.3 647.59 3120.3 684.79C3120.3 721.99 3127.3 754.197 3141.3 781.41C3155.3 808.617 3175.02 829.43 3200.46 843.85C3225.9 858.27 3255.88 865.477 3290.41 865.47C3323.08 865.47 3352.36 857.913 3378.26 842.8C3404.16 827.687 3424.46 806.527 3439.16 779.32C3453.86 752.107 3461.21 720.597 3461.21 684.79C3461.21 648.983 3453.86 617.477 3439.16 590.27V590.27Z" fill="white"/>
<path d="M3691.51 356.91V873.15H3677.51V356.91H3691.51Z" fill="white"/>
<path d="M1332.75 955.66H1366.65V957.53H1330.57V955.66L1363.33 903.24H1331.61V901.37H1365.61V903.24L1332.75 955.66Z" fill="white"/>
<path d="M1510.9 951.6C1513.01 950.051 1514.79 948.093 1516.13 945.843C1517.47 943.592 1518.35 941.095 1518.7 938.5H1520.78C1519.95 944.147 1516.99 949.263 1512.51 952.8C1507.97 956.44 1502.13 958.26 1494.99 958.26C1490.12 958.347 1485.32 957.165 1481.05 954.83C1476.93 952.509 1473.59 949.032 1471.43 944.83C1469.14 940.023 1467.95 934.765 1467.95 929.44C1467.95 924.115 1469.14 918.857 1471.43 914.05C1473.59 909.844 1476.93 906.366 1481.05 904.05C1485.32 901.713 1490.12 900.528 1494.99 900.61C1499.89 900.475 1504.73 901.682 1508.99 904.1C1512.69 906.237 1515.73 909.351 1517.78 913.1C1519.74 916.671 1520.77 920.676 1520.78 924.75C1520.78 927.25 1520.78 929.12 1520.68 930.37H1470C1470.07 936.123 1471.26 940.94 1473.59 944.82C1475.72 948.531 1478.88 951.549 1482.69 953.51C1486.49 955.433 1490.7 956.414 1494.96 956.37C1501.29 956.383 1506.61 954.793 1510.9 951.6ZM1482.72 905.38C1478.91 907.337 1475.75 910.351 1473.62 914.06C1471.29 917.94 1470.1 922.76 1470.03 928.52H1518.91C1519.26 922.76 1518.34 917.94 1516.15 914.06C1514.12 910.324 1511 907.296 1507.21 905.38C1503.4 903.498 1499.21 902.519 1494.97 902.519C1490.72 902.519 1486.53 903.498 1482.72 905.38V905.38Z" fill="white"/>
<path d="M1652 900.12V902.41H1651.06C1645.6 902.268 1640.28 904.097 1636.06 907.56C1631.93 910.987 1629.87 916.517 1629.87 924.15V957.53H1627.79V901.37H1629.87V915C1632.1 905.08 1639.47 900.12 1652 900.12Z" fill="white"/>
<path d="M1765.7 954.78C1761.54 952.45 1758.13 948.981 1755.87 944.78C1753.52 940.009 1752.29 934.76 1752.29 929.44C1752.29 924.12 1753.52 918.871 1755.87 914.1C1758.13 909.897 1761.54 906.427 1765.7 904.1C1770.03 901.809 1774.85 900.612 1779.74 900.612C1784.63 900.612 1789.45 901.809 1793.78 904.1C1797.94 906.42 1801.33 909.893 1803.56 914.1C1805.88 918.88 1807.09 924.125 1807.09 929.44C1807.09 934.755 1805.88 940 1803.56 944.78C1801.33 948.986 1797.94 952.459 1793.78 954.78C1789.45 957.066 1784.63 958.26 1779.74 958.26C1774.85 958.26 1770.03 957.066 1765.7 954.78V954.78ZM1792.22 953.42C1796.11 951.374 1799.32 948.249 1801.48 944.42C1803.83 940.42 1805 935.42 1805.01 929.42C1805.02 923.42 1803.84 918.42 1801.48 914.42C1799.32 910.595 1796.11 907.471 1792.22 905.42C1788.37 903.418 1784.08 902.388 1779.74 902.42C1775.38 902.394 1771.08 903.424 1767.21 905.42C1763.3 907.451 1760.06 910.579 1757.9 914.42C1755.54 918.473 1754.36 923.447 1754.37 929.34C1754.38 935.233 1755.55 940.21 1757.9 944.27C1760.06 948.112 1763.3 951.24 1767.21 953.27C1771.08 955.267 1775.38 956.296 1779.74 956.27C1784.07 956.348 1788.35 955.37 1792.22 953.42V953.42Z" fill="white"/>
<path d="M2108.79 901.37L2091.12 957.53H2089.56L2069.07 905.22L2048.68 957.53H2047.12L2029.44 901.37H2031.63L2048.06 953.79L2068.34 901.37H2069.9L2090.18 953.79L2106.61 901.37H2108.79Z" fill="white"/>
<path d="M2212.48 914.11C2214.65 909.895 2218.01 906.415 2222.15 904.11C2226.52 901.734 2231.43 900.532 2236.4 900.62C2242.85 900.62 2248.31 902.286 2252.78 905.62C2257.12 908.788 2260.28 913.303 2261.78 918.46V901.3H2263.78V957.46H2261.78V940.3C2260.28 945.458 2257.11 949.976 2252.78 953.15C2248.31 956.483 2242.85 958.15 2236.4 958.15C2231.43 958.241 2226.52 957.042 2222.15 954.67C2218.01 952.364 2214.65 948.885 2212.48 944.67C2210.22 939.872 2209.05 934.633 2209.05 929.33C2209.05 924.026 2210.22 918.788 2212.48 913.99V914.11ZM2258.48 915.36C2256.41 911.419 2253.27 908.141 2249.43 905.9C2245.48 903.621 2240.99 902.453 2236.43 902.52C2231.77 902.402 2227.16 903.513 2223.07 905.74C2219.28 907.9 2216.22 911.141 2214.28 915.05C2212.22 919.574 2211.16 924.485 2211.16 929.455C2211.16 934.424 2212.22 939.336 2214.28 943.86C2216.22 947.766 2219.28 951.004 2223.07 953.16C2227.16 955.39 2231.77 956.504 2236.43 956.39C2240.99 956.452 2245.48 955.284 2249.43 953.01C2253.28 950.765 2256.41 947.483 2258.48 943.54C2260.64 939.156 2261.76 934.336 2261.76 929.45C2261.76 924.564 2260.64 919.743 2258.48 915.36V915.36Z" fill="white"/>
<path d="M2376.54 954.52C2372.76 952.02 2370.56 948.24 2369.94 943.18H2372C2372.14 945.114 2372.71 946.993 2373.67 948.676C2374.63 950.359 2375.96 951.803 2377.56 952.9C2380.85 955.227 2385.51 956.39 2391.56 956.39C2394.35 956.449 2397.11 955.842 2399.62 954.62C2401.8 953.561 2403.66 951.925 2404.98 949.89C2406.2 947.98 2406.85 945.758 2406.85 943.49C2406.95 941.265 2406.18 939.089 2404.72 937.41C2403.25 935.819 2401.43 934.59 2399.41 933.82C2396.57 932.761 2393.67 931.859 2390.73 931.12C2387.35 930.308 2384.03 929.266 2380.8 928C2378.28 926.971 2376.06 925.323 2374.35 923.21C2372.49 920.769 2371.55 917.747 2371.7 914.68C2371.7 912.164 2372.49 909.711 2373.98 907.68C2375.6 905.451 2377.77 903.678 2380.28 902.53C2383.09 901.213 2386.17 900.553 2389.28 900.6C2394.97 900.6 2399.54 902.023 2403.01 904.87C2406.48 907.717 2408.35 911.667 2408.63 916.72H2406.54C2406.49 914.78 2406.05 912.871 2405.24 911.109C2404.42 909.348 2403.26 907.772 2401.81 906.48C2398.87 903.813 2394.69 902.48 2389.28 902.48C2386.56 902.438 2383.86 903.005 2381.38 904.14C2379.17 905.13 2377.25 906.669 2375.81 908.61C2374.52 910.345 2373.82 912.448 2373.81 914.61C2373.68 917.282 2374.53 919.909 2376.2 922C2377.77 923.859 2379.79 925.291 2382.07 926.16C2385.12 927.289 2388.23 928.26 2391.38 929.07C2394.53 929.912 2397.64 930.914 2400.69 932.07C2402.92 932.952 2404.89 934.359 2406.46 936.17C2408.12 938.202 2408.97 940.778 2408.85 943.4C2408.88 946.089 2408.08 948.721 2406.56 950.94C2404.99 953.234 2402.84 955.067 2400.33 956.25C2397.57 957.558 2394.54 958.215 2391.48 958.17C2385.3 958.23 2380.32 957.013 2376.54 954.52Z" fill="white"/>
<path d="M2520 903.45V942.76C2519.88 945.409 2520.27 948.056 2521.14 950.56C2521.47 951.402 2521.96 952.17 2522.58 952.822C2523.21 953.474 2523.95 953.997 2524.78 954.36C2527.02 955.187 2529.4 955.558 2531.78 955.45H2537.71V957.53H2531.57C2526.72 957.53 2523.23 956.42 2521.12 954.2C2519.01 951.98 2517.95 948.167 2517.95 942.76V903.45H2508.8V901.37H2517.95V887H2520V901.35H2537.68V903.43L2520 903.45Z" fill="white"/>
<path d="M2683 951.6C2685.11 950.048 2686.89 948.09 2688.23 945.84C2689.57 943.59 2690.44 941.094 2690.8 938.5H2692.88C2692.05 944.146 2689.09 949.261 2684.61 952.8C2680.07 956.44 2674.23 958.26 2667.08 958.26C2662.22 958.346 2657.42 957.163 2653.15 954.83C2649.03 952.512 2645.69 949.034 2643.53 944.83C2641.23 940.024 2640.04 934.766 2640.04 929.44C2640.04 924.113 2641.23 918.855 2643.53 914.05C2645.68 909.842 2649.03 906.363 2653.15 904.05C2657.42 901.713 2662.22 900.527 2667.08 900.61C2671.98 900.475 2676.82 901.682 2681.08 904.1C2684.78 906.232 2687.83 909.346 2689.87 913.1C2691.83 916.669 2692.87 920.676 2692.87 924.75C2692.87 927.25 2692.87 929.12 2692.76 930.37H2642.1C2642.17 936.123 2643.37 940.94 2645.69 944.82C2647.83 948.529 2650.99 951.546 2654.79 953.51C2658.59 955.43 2662.8 956.411 2667.06 956.37C2673.37 956.383 2678.68 954.793 2683 951.6ZM2654.81 905.38C2651.01 907.34 2647.85 910.353 2645.71 914.06C2643.39 917.94 2642.19 922.76 2642.12 928.52H2691C2691.35 922.76 2690.44 917.94 2688.25 914.06C2686.21 910.327 2683.09 907.3 2679.3 905.38C2675.49 903.498 2671.3 902.519 2667.05 902.519C2662.81 902.519 2658.62 903.498 2654.81 905.38V905.38Z" fill="white"/>
<path d="M2962.32 951.6C2964.43 950.051 2966.21 948.093 2967.55 945.843C2968.89 943.592 2969.77 941.095 2970.12 938.5H2972.2C2971.37 944.147 2968.41 949.264 2963.93 952.8C2959.39 956.44 2953.55 958.26 2946.41 958.26C2941.54 958.347 2936.74 957.165 2932.47 954.83C2928.35 952.512 2925.01 949.034 2922.85 944.83C2920.56 940.023 2919.37 934.765 2919.37 929.44C2919.37 924.115 2920.56 918.857 2922.85 914.05C2925 909.842 2928.35 906.363 2932.47 904.05C2936.74 901.713 2941.54 900.528 2946.41 900.61C2951.31 900.478 2956.15 901.685 2960.41 904.1C2964.11 906.235 2967.15 909.349 2969.19 913.1C2971.15 916.669 2972.19 920.676 2972.19 924.75C2972.19 927.25 2972.19 929.12 2972.08 930.37H2921.44C2921.5 936.123 2922.69 940.94 2925.02 944.82C2927.16 948.527 2930.32 951.543 2934.12 953.51C2937.93 955.432 2942.14 956.412 2946.4 956.37C2952.71 956.383 2958.01 954.793 2962.32 951.6ZM2934.13 905.38C2930.33 907.343 2927.17 910.355 2925.03 914.06C2922.71 917.94 2921.52 922.76 2921.45 928.52H2970.33C2970.67 922.76 2969.75 917.94 2967.57 914.06C2965.54 910.326 2962.42 907.299 2958.63 905.38C2954.82 903.498 2950.63 902.519 2946.38 902.519C2942.13 902.519 2937.94 903.498 2934.13 905.38Z" fill="white"/>
<path d="M3097.21 954.41L3119.67 901.41H3121.85L3097.93 957.57H3096.37L3072.45 901.41H3074.74L3097.21 954.41Z" fill="white"/>
<path d="M3265.06 951.6C3267.17 950.051 3268.95 948.093 3270.29 945.843C3271.63 943.592 3272.51 941.095 3272.86 938.5H3274.94C3274.11 944.147 3271.15 949.264 3266.67 952.8C3262.13 956.44 3256.29 958.26 3249.15 958.26C3244.28 958.347 3239.48 957.165 3235.21 954.83C3231.09 952.512 3227.75 949.034 3225.59 944.83C3223.3 940.023 3222.11 934.765 3222.11 929.44C3222.11 924.115 3223.3 918.857 3225.59 914.05C3227.74 909.842 3231.09 906.363 3235.21 904.05C3239.48 901.713 3244.28 900.528 3249.15 900.61C3254.05 900.478 3258.89 901.685 3263.15 904.1C3266.85 906.238 3269.89 909.351 3271.94 913.1C3273.9 916.671 3274.93 920.677 3274.94 924.75C3274.94 927.25 3274.94 929.12 3274.84 930.37H3224.19C3224.26 936.123 3225.46 940.94 3227.78 944.82C3229.91 948.531 3233.07 951.549 3236.88 953.51C3240.68 955.433 3244.89 956.414 3249.15 956.37C3255.46 956.383 3260.77 954.793 3265.06 951.6ZM3236.88 905.38C3233.07 907.337 3229.91 910.351 3227.78 914.06C3225.45 917.94 3224.25 922.76 3224.19 928.52H3273.07C3273.41 922.76 3272.49 917.94 3270.31 914.06C3268.28 910.324 3265.16 907.296 3261.37 905.38C3257.56 903.498 3253.37 902.52 3249.12 902.52C3244.88 902.52 3240.69 903.498 3236.88 905.38V905.38Z" fill="white"/>
<path d="M3422.31 906.26C3426.54 910.347 3428.65 916.517 3428.65 924.77V957.53H3426.65V924.53C3426.65 917.197 3424.81 911.6 3421.14 907.74C3417.47 903.88 3412.44 901.957 3406.06 901.97C3399.39 901.97 3394.06 904.137 3390.06 908.47C3386.06 912.803 3384.06 919.197 3384.06 927.65V957.5H3382V901.34H3384V916.11C3385.06 911.294 3387.87 907.047 3391.9 904.2C3396.07 901.394 3401.01 899.958 3406.04 900.09C3412.68 900.11 3418.1 902.167 3422.31 906.26Z" fill="white"/>
<path d="M3542.22 903.45V942.76C3542.1 945.409 3542.49 948.056 3543.36 950.56C3544.02 952.258 3545.33 953.624 3547 954.36C3549.24 955.187 3551.62 955.558 3554 955.45H3559.93V957.53H3553.79C3548.94 957.53 3545.45 956.42 3543.34 954.2C3541.23 951.98 3540.17 948.167 3540.17 942.76V903.45H3531V901.37H3540.15V887H3542.23V901.35H3559.91V903.43L3542.22 903.45Z" fill="white"/>
<path d="M3668 954.52C3664.22 952.02 3662.02 948.24 3661.39 943.18H3663.47C3663.61 945.115 3664.18 946.994 3665.14 948.677C3666.11 950.36 3667.44 951.803 3669.04 952.9C3672.33 955.227 3676.99 956.39 3683.04 956.39C3685.83 956.448 3688.59 955.842 3691.1 954.62C3693.29 953.563 3695.14 951.927 3696.46 949.89C3697.69 947.982 3698.34 945.759 3698.33 943.49C3698.43 941.265 3697.66 939.089 3696.2 937.41C3694.73 935.82 3692.92 934.591 3690.9 933.82C3688.05 932.761 3685.15 931.859 3682.21 931.12C3678.83 930.307 3675.52 929.264 3672.28 928C3669.76 926.968 3667.55 925.321 3665.83 923.21C3663.97 920.769 3663.03 917.747 3663.18 914.68C3663.17 912.162 3663.98 909.708 3665.47 907.68C3667.09 905.45 3669.25 903.676 3671.76 902.53C3674.58 901.215 3677.65 900.555 3680.76 900.6C3686.44 900.6 3691.01 902.023 3694.48 904.87C3697.95 907.717 3699.82 911.666 3700.1 916.72H3698C3697.95 914.781 3697.5 912.873 3696.69 911.112C3695.88 909.351 3694.71 907.775 3693.27 906.48C3690.32 903.813 3686.14 902.48 3680.74 902.48C3678.01 902.438 3675.31 903.005 3672.83 904.14C3670.62 905.127 3668.71 906.667 3667.27 908.61C3665.98 910.345 3665.28 912.448 3665.27 914.61C3665.14 917.282 3665.99 919.909 3667.66 922C3669.24 923.86 3671.26 925.291 3673.54 926.16C3676.59 927.291 3679.7 928.262 3682.85 929.07C3686 929.912 3689.1 930.913 3692.15 932.07C3694.38 932.951 3696.36 934.358 3697.93 936.17C3699.59 938.204 3700.44 940.778 3700.32 943.4C3700.35 946.112 3699.54 948.766 3698 951C3696.43 953.292 3694.27 955.124 3691.76 956.31C3689 957.617 3685.97 958.273 3682.92 958.23C3676.76 958.25 3671.79 957.013 3668 954.52Z" fill="white"/>
<path d="M1228.33 953.754C1225.86 954.272 1223.28 953.864 1221.09 952.607C1218.89 951.349 1217.24 949.331 1216.43 946.934C1179 837.634 1071.07 825.794 1045.7 827.324C996.923 830.254 944.293 851.534 891.653 866.864C865.273 874.554 616.883 990.084 460.973 973.674C137.813 936.444 -33.8872 707.414 5.58276 435.944C41.5828 188.464 294.053 -23.7363 543.583 2.14367C1062.02 55.9137 985.873 530.974 973.733 609.454C973.424 611.77 972.385 613.929 970.767 615.615C969.148 617.302 967.035 618.429 964.733 618.834C963.296 619.075 961.823 618.987 960.426 618.577C959.028 618.166 957.742 617.443 956.664 616.463C955.587 615.482 954.746 614.27 954.205 612.917C953.664 611.565 953.438 610.107 953.543 608.654C958.693 543.494 956.703 153.714 524.893 120.544C335.803 106.024 175.893 260.674 147.153 447.544C115.333 654.624 266.703 824.034 473.423 845.784C562.833 855.194 823.973 765.484 858.883 755.314C913.343 739.454 1020.88 725.134 1062.93 734.524C1104.98 743.914 1205.93 746.354 1236.24 941.964C1236.69 944.586 1236.1 947.278 1234.61 949.482C1233.12 951.685 1230.84 953.229 1228.24 953.794L1228.33 953.754Z" fill="white"/>
</svg>
