<svg width="3692" height="976" viewBox="0 0 3692 976" fill="none" xmlns="http://www.w3.org/2000/svg">
<path d="M1291.2 581.89C1306.6 552.83 1328.3 530.497 1356.3 514.89C1384.3 499.283 1416.27 491.493 1452.2 491.52C1495.6 491.52 1532.35 502.8 1562.45 525.36C1592.55 547.92 1612.73 576.637 1623 611.51V496.44H1636.3V873.15H1623V758C1612.73 792.88 1592.55 821.6 1562.45 844.16C1532.35 866.72 1495.6 878 1452.2 878C1416.26 878 1384.29 870.21 1356.3 854.63C1328.31 839.05 1306.61 816.717 1291.2 787.63C1275.8 758.57 1268.1 724.27 1268.1 684.73C1268.1 645.19 1275.8 610.91 1291.2 581.89ZM1600.95 590.27C1586.28 563.057 1565.98 541.893 1540.05 526.78C1514.12 511.667 1484.83 504.11 1452.2 504.11C1417.66 504.11 1387.66 511.32 1362.2 525.74C1336.74 540.16 1317.02 560.97 1303.05 588.17C1289.05 615.383 1282.05 647.59 1282.05 684.79C1282.05 721.99 1289.05 754.197 1303.05 781.41C1317.05 808.617 1336.77 829.43 1362.2 843.85C1387.63 858.27 1417.63 865.477 1452.2 865.47C1484.87 865.47 1514.15 857.913 1540.05 842.8C1565.95 827.687 1586.25 806.527 1600.95 779.32C1615.62 752.107 1622.95 720.597 1622.95 684.79C1622.95 648.983 1615.63 617.477 1601 590.27H1600.95Z" fill="white"/>
<path d="M2110.9 529.22C2139.36 556.667 2153.59 598.06 2153.6 653.4V873.15H2140.3V652C2140.3 602.713 2127.93 565.16 2103.2 539.34C2078.47 513.52 2044.63 500.613 2001.7 500.62C1956.9 500.62 1920.97 515.153 1893.9 544.22C1866.83 573.287 1853.3 616.19 1853.3 672.93V873.15H1839.3V496.44H1853.3V595.5C1862.16 560.62 1879.89 533.993 1906.5 515.62C1933.11 497.247 1964.84 488.063 2001.7 488.07C2046.03 488.07 2082.43 501.787 2110.9 529.22Z" fill="white"/>
<path d="M2347.16 394.93C2343.66 391.45 2341.91 386.917 2341.91 381.33C2341.91 375.743 2343.66 371.21 2347.16 367.73C2350.64 364.376 2355.28 362.501 2360.11 362.501C2364.94 362.501 2369.58 364.376 2373.06 367.73C2376.56 371.223 2378.31 375.757 2378.31 381.33C2378.31 386.903 2376.56 391.437 2373.06 394.93C2369.59 398.292 2364.94 400.171 2360.11 400.171C2355.28 400.171 2350.63 398.292 2347.16 394.93V394.93ZM2367.16 496.44V873.15H2353.16V496.44H2367.16Z" fill="white"/>
<path d="M2645 525C2674.4 502.68 2710.8 491.517 2754.2 491.51C2790.13 491.51 2822.1 499.3 2850.11 514.88C2878.12 530.46 2899.82 552.794 2915.21 581.88C2930.61 610.947 2938.31 645.247 2938.31 684.78C2938.31 724.314 2930.61 758.614 2915.21 787.68C2899.81 816.754 2878.11 839.087 2850.11 854.68C2822.11 870.274 2790.14 878.047 2754.2 878C2710.8 878 2674.17 866.837 2644.3 844.51C2614.43 822.184 2594.13 793.35 2583.4 758.01V873.12H2570.1V356.91H2583.4V611.54C2595.06 576.2 2615.59 547.354 2645 525ZM2903.31 588.13C2889.31 560.93 2869.59 540.12 2844.16 525.7C2818.73 511.28 2788.73 504.07 2754.16 504.07C2721.49 504.07 2692.21 511.627 2666.31 526.74C2640.41 541.854 2620.11 563.017 2605.41 590.23C2590.74 617.43 2583.41 648.937 2583.41 684.75C2583.41 720.564 2590.74 752.074 2605.41 779.28C2620.11 806.494 2640.41 827.654 2666.31 842.76C2692.21 857.867 2721.49 865.424 2754.16 865.43C2788.69 865.43 2818.69 858.224 2844.16 843.81C2869.63 829.397 2889.34 808.584 2903.31 781.37C2917.31 754.157 2924.31 721.95 2924.31 684.75C2924.31 647.55 2917.31 615.357 2903.31 588.17V588.13Z" fill="white"/>
<path d="M3129.4 581.89C3144.8 552.83 3166.5 530.497 3194.5 514.89C3222.5 499.283 3254.47 491.493 3290.41 491.52C3333.81 491.52 3370.56 502.8 3400.66 525.36C3430.76 547.92 3450.94 576.637 3461.21 611.51V496.44H3474.51V873.15H3461.21V758C3450.94 792.88 3430.76 821.6 3400.66 844.16C3370.56 866.72 3333.81 878 3290.41 878C3254.47 878 3222.5 870.21 3194.5 854.63C3166.5 839.05 3144.8 816.717 3129.4 787.63C3114 758.57 3106.3 724.27 3106.3 684.73C3106.3 645.19 3114 610.91 3129.4 581.89ZM3439.16 590.27C3424.49 563.057 3404.19 541.893 3378.26 526.78C3352.33 511.667 3323.04 504.11 3290.41 504.11C3255.87 504.11 3225.89 511.32 3200.46 525.74C3175.03 540.16 3155.31 560.97 3141.3 588.17C3127.3 615.383 3120.3 647.59 3120.3 684.79C3120.3 721.99 3127.3 754.197 3141.3 781.41C3155.3 808.617 3175.02 829.43 3200.46 843.85C3225.9 858.27 3255.88 865.477 3290.41 865.47C3323.08 865.47 3352.36 857.913 3378.26 842.8C3404.16 827.687 3424.46 806.527 3439.16 779.32C3453.86 752.107 3461.21 720.597 3461.21 684.79C3461.21 648.983 3453.86 617.477 3439.16 590.27V590.27Z" fill="white"/>
<path d="M3691.51 356.91V873.15H3677.51V356.91H3691.51Z" fill="white"/>
<path d="M1228.33 953.754C1225.86 954.272 1223.28 953.864 1221.09 952.607C1218.89 951.349 1217.24 949.331 1216.43 946.934C1179 837.634 1071.07 825.794 1045.7 827.324C996.923 830.254 944.293 851.534 891.653 866.864C865.273 874.554 616.883 990.084 460.973 973.674C137.813 936.444 -33.8872 707.414 5.58276 435.944C41.5828 188.464 294.053 -23.7363 543.583 2.14367C1062.02 55.9137 985.873 530.974 973.733 609.454C973.424 611.77 972.385 613.929 970.767 615.615C969.148 617.302 967.035 618.429 964.733 618.834C963.296 619.075 961.823 618.987 960.426 618.577C959.028 618.166 957.742 617.443 956.664 616.463C955.587 615.482 954.746 614.27 954.205 612.917C953.664 611.565 953.438 610.107 953.543 608.654C958.693 543.494 956.703 153.714 524.893 120.544C335.803 106.024 175.893 260.674 147.153 447.544C115.333 654.624 266.703 824.034 473.423 845.784C562.833 855.194 823.973 765.484 858.883 755.314C913.343 739.454 1020.88 725.134 1062.93 734.524C1104.98 743.914 1205.93 746.354 1236.24 941.964C1236.69 944.586 1236.1 947.278 1234.61 949.482C1233.12 951.685 1230.84 953.229 1228.24 953.794L1228.33 953.754Z" fill="white"/>
</svg>
